<?xml version="1.0" encoding="UTF-8"?>
<svg xmlns="http://www.w3.org/2000/svg" width="551.17pt" height="139.86pt" viewBox="0 0 551.17 139.86" version="1.1">
    <defs>
        <clipPath id="clip1">
            <path d="M 43 104 L 66 104 L 66 139.859375 L 43 139.859375 Z M 43 104 "/>
        </clipPath>
        <clipPath id="clip2">
            <path d="M 524 9 L 551.171875 9 L 551.171875 37 L 524 37 Z M 524 9 "/>
        </clipPath>
    </defs>
    <g id="surface1">
        <path style=" stroke:none;fill-rule:evenodd;fill:rgb(13.699341%,12.199402%,12.5%);fill-opacity:1;"
              d="M 505.738281 40.46875 L 475.566406 40.46875 L 494.597656 114.097656 L 467.238281 114.097656 L 456.226563 56.816406 C 452.171875 40.46875 443.203125 40.46875 443.203125 40.46875 L 424.0625 40.46875 L 424.0625 19.765625 L 505.738281 19.765625 L 505.738281 40.46875 "/>
        <path style=" stroke:none;fill-rule:nonzero;fill:rgb(13.699341%,12.199402%,12.5%);fill-opacity:1;"
              d="M 263.144531 40.46875 L 263.144531 19.746094 L 287.84375 19.746094 C 295.941406 19.746094 310.003906 27.089844 314.191406 40.46875 C 318.359375 53.84375 333.425781 114.320313 333.425781 114.320313 L 305.832031 114.320313 L 298.835938 77.847656 C 295.941406 77.75 291.066406 77.945313 288.738281 77.945313 C 284.550781 77.945313 280.121094 82.722656 278.730469 90.898438 C 277.320313 99.082031 275.574219 114.082031 275.574219 114.082031 L 249.726563 114.082031 C 249.726563 114.082031 250.105469 104.324219 252.769531 88.871094 C 257.71875 60.011719 273.527344 56.355469 281.386719 56.355469 L 294.734375 56.355469 L 294.433594 54.761719 C 294.433594 54.761719 289.867188 40.46875 283.664063 40.46875 L 263.144531 40.46875 "/>
        <path style=" stroke:none;fill-rule:nonzero;fill:rgb(13.699341%,12.199402%,12.5%);fill-opacity:1;"
              d="M 229.277344 19.476563 C 243.4375 19.476563 250.710938 25.207031 252.566406 32.464844 C 254.3125 39.308594 254.804688 55.640625 252.402344 65.15625 C 249.988281 74.671875 242.460938 78.175781 229.277344 78.175781 L 208.496094 78.175781 L 208.496094 114.082031 L 181.230469 114.082031 L 181.230469 19.476563 L 229.277344 19.476563 M 208.496094 65.15625 L 216.585938 65.15625 C 221.03125 65.15625 223.628906 60.019531 224.304688 56.585938 C 225 53.167969 225.519531 44.761719 224.304688 40.890625 C 223.109375 37.058594 220.9375 32.707031 216.59375 32.707031 L 208.496094 32.707031 L 208.496094 65.15625 "/>
        <path style=" stroke:none;fill-rule:nonzero;fill:rgb(13.699341%,12.199402%,12.5%);fill-opacity:1;"
              d="M 331.515625 19.476563 L 358.773438 19.476563 L 358.773438 83.214844 C 359.175781 88.9375 361.910156 93.40625 365.21875 93.40625 L 390.738281 93.40625 L 390.738281 114.082031 L 350.238281 114.082031 C 339.902344 114.082031 331.515625 99.050781 331.515625 80.492188 L 331.515625 19.476563 "/>
        <path style=" stroke:none;fill-rule:nonzero;fill:rgb(13.699341%,12.199402%,12.5%);fill-opacity:1;"
              d="M 420.542969 49.570313 L 420.542969 114.082031 L 393.34375 114.082031 L 393.34375 49.570313 L 420.542969 49.570313 M 393.34375 19.476563 L 420.542969 19.476563 L 420.542969 40.46875 L 393.34375 40.46875 L 393.34375 19.476563 "/>
        <path style=" stroke:none;fill-rule:evenodd;fill:rgb(13.725281%,29.803467%,56.077576%);fill-opacity:1;"
              d="M 3.277344 26.847656 C 9.847656 12.140625 24.71875 2.902344 43.214844 -0.00390625 L 43.214844 104.960938 C 9.578125 85.53125 -8.070313 52.347656 3.277344 26.847656 "/>
        <g clip-path="url(#clip1)" clip-rule="nonzero">
            <path style=" stroke:none;fill-rule:evenodd;fill:rgb(13.725281%,29.803467%,56.077576%);fill-opacity:1;"
                  d="M 43.214844 104.960938 C 43.214844 104.960938 56.597656 112.757813 65.402344 114.832031 L 43.414063 139.859375 L 43.214844 104.960938 "/>
        </g>
        <path style=" stroke:none;fill-rule:evenodd;fill:rgb(13.725281%,29.803467%,56.077576%);fill-opacity:1;"
              d="M 100.023438 11.492188 C 140.695313 29.269531 162.71875 64.113281 150.183594 92.238281 C 138.800781 117.757813 102.347656 126.847656 65.402344 114.832031 L 65.402344 101.734375 C 86.585938 106.378906 108.195313 103.695313 118.175781 88.890625 C 132.730469 67.308594 120 36.152344 89.578125 16.105469 C 81.875 11.03125 71.945313 5.664063 65.402344 1.511719 C 65.402344 1.511719 90.1875 7.1875 100.023438 11.492188 "/>
        <path style=" stroke:none;fill-rule:nonzero;fill:rgb(97.253418%,72.155762%,15.686035%);fill-opacity:1;"
              d="M 65.402344 94.660156 L 65.402344 3.847656 C 89.800781 20.171875 113.011719 60.660156 103.320313 78.128906 C 96.671875 90.132813 82.136719 95.460938 65.402344 94.660156 "/>
        <path style=" stroke:none;fill-rule:nonzero;fill:rgb(13.699341%,12.199402%,12.5%);fill-opacity:1;"
              d="M 532.0625 30.636719 L 532.0625 15.332031 L 538.855469 15.332031 C 540.214844 15.332031 541.253906 15.472656 541.964844 15.742188 C 542.675781 16.019531 543.242188 16.507813 543.664063 17.199219 C 544.089844 17.898438 544.300781 18.667969 544.300781 19.511719 C 544.300781 20.597656 543.949219 21.515625 543.246094 22.257813 C 542.546875 23.003906 541.460938 23.476563 539.988281 23.679688 C 540.523438 23.9375 540.933594 24.191406 541.210938 24.441406 C 541.804688 24.984375 542.363281 25.660156 542.890625 26.476563 L 545.535156 30.636719 L 543.007813 30.636719 L 540.984375 27.453125 C 540.390625 26.535156 539.902344 25.835938 539.519531 25.347656 C 539.140625 24.863281 538.796875 24.523438 538.492188 24.324219 C 538.191406 24.132813 537.882813 23.996094 537.566406 23.921875 C 537.339844 23.871094 536.964844 23.847656 536.441406 23.847656 L 534.09375 23.847656 L 534.09375 30.636719 L 532.0625 30.636719 M 534.09375 22.09375 L 538.445313 22.09375 C 539.371094 22.09375 540.09375 21.996094 540.617188 21.808594 C 541.140625 21.613281 541.535156 21.308594 541.808594 20.886719 C 542.078125 20.46875 542.214844 20.007813 542.214844 19.515625 C 542.214844 18.789063 541.953125 18.195313 541.425781 17.730469 C 540.898438 17.261719 540.070313 17.03125 538.9375 17.03125 L 534.09375 17.03125 L 534.09375 22.09375 "/>
        <g clip-path="url(#clip2)" clip-rule="nonzero">
            <path style=" stroke:none;fill-rule:nonzero;fill:rgb(13.699341%,12.199402%,12.5%);fill-opacity:1;"
                  d="M 524.652344 22.984375 C 524.652344 30.292969 530.597656 36.242188 537.90625 36.242188 C 545.21875 36.242188 551.164063 30.292969 551.164063 22.984375 C 551.164063 15.675781 545.21875 9.726563 537.90625 9.726563 C 530.597656 9.726563 524.652344 15.675781 524.652344 22.984375 M 526.433594 22.984375 C 526.433594 16.65625 531.582031 11.507813 537.90625 11.507813 C 544.234375 11.507813 549.386719 16.65625 549.386719 22.984375 C 549.386719 29.3125 544.234375 34.460938 537.90625 34.460938 C 531.582031 34.460938 526.433594 29.3125 526.433594 22.984375 "/>
        </g>
    </g>
</svg>
